<?xml version="1.0" encoding="UTF-8" standalone="no"?>
<!-- Created with Inkscape (http://www.inkscape.org/) -->

<svg
   xmlns:dc="http://purl.org/dc/elements/1.1/"
   xmlns:cc="http://creativecommons.org/ns#"
   xmlns:rdf="http://www.w3.org/1999/02/22-rdf-syntax-ns#"
   xmlns:svg="http://www.w3.org/2000/svg"
   xmlns="http://www.w3.org/2000/svg"
   xmlns:sodipodi="http://sodipodi.sourceforge.net/DTD/sodipodi-0.dtd"
   xmlns:inkscape="http://www.inkscape.org/namespaces/inkscape"
   version="1.1"
   id="svg40903"
   xml:space="preserve"
   width="808.97809"
   height="210.61749"
   viewBox="0 0 808.97809 210.61749"
   sodipodi:docname="overview_approach.svg"
   inkscape:version="0.92.4 5da689c313, 2019-01-14"><metadata
     id="metadata40909"><rdf:RDF><cc:Work
         rdf:about=""><dc:format>image/svg+xml</dc:format><dc:type
           rdf:resource="http://purl.org/dc/dcmitype/StillImage" /><dc:title></dc:title></cc:Work></rdf:RDF></metadata><defs
     id="defs40907"><marker
       inkscape:stockid="Arrow1Mend"
       orient="auto"
       refY="0"
       refX="0"
       id="marker45901"
       style="overflow:visible"
       inkscape:isstock="true"><path
         id="path45899"
         d="M 0,0 5,-5 -12.5,0 5,5 Z"
         style="fill:#000000;fill-opacity:1;fill-rule:evenodd;stroke:#000000;stroke-width:1.00000003pt;stroke-opacity:1"
         transform="matrix(-0.4,0,0,-0.4,-4,0)"
         inkscape:connector-curvature="0" /></marker><marker
       inkscape:stockid="Arrow1Mend"
       orient="auto"
       refY="0"
       refX="0"
       id="marker44837"
       style="overflow:visible"
       inkscape:isstock="true"><path
         id="path44835"
         d="M 0,0 5,-5 -12.5,0 5,5 Z"
         style="fill:#000000;fill-opacity:1;fill-rule:evenodd;stroke:#000000;stroke-width:1.00000003pt;stroke-opacity:1"
         transform="matrix(-0.4,0,0,-0.4,-4,0)"
         inkscape:connector-curvature="0" /></marker><marker
       inkscape:stockid="Arrow1Mend"
       orient="auto"
       refY="0"
       refX="0"
       id="Arrow1Mend"
       style="overflow:visible"
       inkscape:isstock="true"><path
         id="path4747"
         d="M 0,0 5,-5 -12.5,0 5,5 Z"
         style="fill:#000000;fill-opacity:1;fill-rule:evenodd;stroke:#000000;stroke-width:1.00000003pt;stroke-opacity:1"
         transform="matrix(-0.4,0,0,-0.4,-4,0)"
         inkscape:connector-curvature="0" /></marker><marker
       inkscape:stockid="Arrow1Mend"
       orient="auto"
       refY="0"
       refX="0"
       id="Arrow1Mend-7"
       style="overflow:visible"
       inkscape:isstock="true"><path
         inkscape:connector-curvature="0"
         id="path4747-4"
         d="M 0,0 5,-5 -12.5,0 5,5 Z"
         style="fill:#000000;fill-opacity:1;fill-rule:evenodd;stroke:#000000;stroke-width:1.00000003pt;stroke-opacity:1"
         transform="matrix(-0.4,0,0,-0.4,-4,0)" /></marker><marker
       inkscape:stockid="Arrow1Mend"
       orient="auto"
       refY="0"
       refX="0"
       id="Arrow1Mend-5"
       style="overflow:visible"
       inkscape:isstock="true"><path
         inkscape:connector-curvature="0"
         id="path4747-2"
         d="M 0,0 5,-5 -12.5,0 5,5 Z"
         style="fill:#000000;fill-opacity:1;fill-rule:evenodd;stroke:#000000;stroke-width:1.00000003pt;stroke-opacity:1"
         transform="matrix(-0.4,0,0,-0.4,-4,0)" /></marker><marker
       inkscape:stockid="Arrow1Mend"
       orient="auto"
       refY="0"
       refX="0"
       id="Arrow1Mend-5-4"
       style="overflow:visible"
       inkscape:isstock="true"><path
         inkscape:connector-curvature="0"
         id="path4747-2-3"
         d="M 0,0 5,-5 -12.5,0 5,5 Z"
         style="fill:#000000;fill-opacity:1;fill-rule:evenodd;stroke:#000000;stroke-width:1.00000003pt;stroke-opacity:1"
         transform="matrix(-0.4,0,0,-0.4,-4,0)" /></marker><marker
       inkscape:stockid="Arrow1Mend"
       orient="auto"
       refY="0"
       refX="0"
       id="Arrow1Mend-5-4-8"
       style="overflow:visible"
       inkscape:isstock="true"><path
         inkscape:connector-curvature="0"
         id="path4747-2-3-9"
         d="M 0,0 5,-5 -12.5,0 5,5 Z"
         style="fill:#000000;fill-opacity:1;fill-rule:evenodd;stroke:#000000;stroke-width:1.00000003pt;stroke-opacity:1"
         transform="matrix(-0.4,0,0,-0.4,-4,0)" /></marker><marker
       inkscape:stockid="Arrow1Mend"
       orient="auto"
       refY="0"
       refX="0"
       id="marker44837-2"
       style="overflow:visible"
       inkscape:isstock="true"><path
         inkscape:connector-curvature="0"
         id="path44835-3"
         d="M 0,0 5,-5 -12.5,0 5,5 Z"
         style="fill:#000000;fill-opacity:1;fill-rule:evenodd;stroke:#000000;stroke-width:1.00000003pt;stroke-opacity:1"
         transform="matrix(-0.4,0,0,-0.4,-4,0)" /></marker><marker
       inkscape:stockid="Arrow1Mend"
       orient="auto"
       refY="0"
       refX="0"
       id="Arrow1Mend-5-4-8-8"
       style="overflow:visible"
       inkscape:isstock="true"><path
         inkscape:connector-curvature="0"
         id="path4747-2-3-9-3"
         d="M 0,0 5,-5 -12.5,0 5,5 Z"
         style="fill:#000000;fill-opacity:1;fill-rule:evenodd;stroke:#000000;stroke-width:1.00000003pt;stroke-opacity:1"
         transform="matrix(-0.4,0,0,-0.4,-4,0)" /></marker></defs><sodipodi:namedview
     pagecolor="#ffffff"
     bordercolor="#666666"
     borderopacity="1"
     objecttolerance="10"
     gridtolerance="10"
     guidetolerance="10"
     inkscape:pageopacity="0"
     inkscape:pageshadow="2"
     inkscape:window-width="2558"
     inkscape:window-height="1419"
     id="namedview40905"
     showgrid="true"
     inkscape:zoom="2.0033058"
     inkscape:cx="237.83843"
     inkscape:cy="211.23959"
     inkscape:window-x="0"
     inkscape:window-y="0"
     inkscape:window-maximized="0"
     inkscape:current-layer="g40911"
     inkscape:snap-nodes="true"
     inkscape:snap-object-midpoints="true"
     inkscape:object-nodes="true"
     fit-margin-top="1"
     fit-margin-left="1"
     fit-margin-right="1"
     fit-margin-bottom="1"><inkscape:grid
       type="xygrid"
       id="grid41172"
       originx="2.2007508"
       originy="-6.3363172" /></sodipodi:namedview><g
     id="g40911"
     inkscape:groupmode="layer"
     inkscape:label="ink_ext_XXXXXX"
     transform="matrix(1.3333333,0,0,-1.3333333,2.2007508,216.95382)"><rect
   ry="3.593766"
   y="-67.5"
   x="450"
   height="44.999996"
   width="75.000008"
   id="rect5202-03-9-0"
   style="fill:#ffffff;fill-opacity:1;stroke:#000000;stroke-width:1.29035735;stroke-miterlimit:4;stroke-dasharray:none;stroke-dashoffset:0.90141732;stroke-opacity:1"
   transform="scale(1,-1)" /><g
   id="g46357"><path
     d="M 4.32383,86.5078 H 41.8238 l 7.5,-7.5 v -48.75 H 4.32383 Z"
     style="fill:#ffffff;fill-opacity:1;fill-rule:nonzero;stroke:none;stroke-width:0.1"
     id="path40921"
     inkscape:connector-curvature="0" /><path
     d="M 4.32383,86.5078 H 41.8238 l 7.5,-7.5 v -48.75 H 4.32383 Z"
     style="fill:none;stroke:#000000;stroke-width:1.60158002;stroke-linecap:butt;stroke-linejoin:miter;stroke-miterlimit:4;stroke-dasharray:none;stroke-opacity:1"
     id="path40923"
     inkscape:connector-curvature="0" /><path
     d="M 7.78516,79.0078 H 45.2852 l 7.5,-7.4996 V 22.7578 H 7.78516 Z"
     style="fill:#ffffff;fill-opacity:1;fill-rule:nonzero;stroke:none;stroke-width:0.1"
     id="path40925"
     inkscape:connector-curvature="0" /><path
     d="M 7.78516,79.0078 H 45.2852 l 7.5,-7.4996 V 22.7578 H 7.78516 Z"
     style="fill:none;stroke:#000000;stroke-width:1.60158002;stroke-linecap:butt;stroke-linejoin:miter;stroke-miterlimit:4;stroke-dasharray:none;stroke-opacity:1"
     id="path40927"
     inkscape:connector-curvature="0" /></g><text
   transform="scale(1,-1)"
   style="font-variant:normal;font-weight:normal;font-size:11px;font-family:'Bitstream Vera Serif';-inkscape-font-specification:BitstreamVeraSerif-Roman;writing-mode:lr-tb;fill:#000000;fill-opacity:1;fill-rule:nonzero;stroke:none"
   id="text40933"
   x="-1.5074967"
   y="-7.9460902"><tspan
     sodipodi:role="line"
     id="tspan40931"
     x="-1.5074967"
     y="-7.9460902">Input Data</tspan></text>


<rect
   transform="scale(1,-1)"
   ry="3.593766"
   y="-67.5"
   x="86.25"
   height="44.999996"
   width="75.000008"
   id="rect5202-03-9"
   style="fill:#ffffff;fill-opacity:1;stroke:#000000;stroke-width:1.29035735;stroke-miterlimit:4;stroke-dasharray:none;stroke-dashoffset:0.90141732;stroke-opacity:1" /><text
   transform="scale(1,-1)"
   style="font-variant:normal;font-weight:normal;font-size:14px;font-family:'Bitstream Vera Serif';-inkscape-font-specification:BitstreamVeraSerif-Roman;writing-mode:lr-tb;fill:#000000;fill-opacity:1;fill-rule:nonzero;stroke:none"
   id="text40945"
   x="105.76"
   y="-49.202648"><tspan
     x="105.76 111.29 120.306 125.486 133.774"
     y="-49.202648"
     sodipodi:role="line"
     id="tspan40941">Infer</tspan><tspan
     x="106.81273 116.15073 122.84273 131.13072"
     y="-31.702648"
     sodipodi:role="line"
     id="tspan40943">Tree</tspan></text>


<rect
   ry="3.593766"
   y="-67.5"
   x="273.75"
   height="44.999996"
   width="75.000008"
   id="rect5202-03-9-6"
   style="fill:#ffffff;fill-opacity:1;stroke:#000000;stroke-width:1.29035735;stroke-miterlimit:4;stroke-dasharray:none;stroke-dashoffset:0.90141732;stroke-opacity:1"
   transform="scale(1,-1)" /><text
   transform="scale(1,-1)"
   style="font-variant:normal;font-weight:normal;font-size:14px;font-family:'Bitstream Vera Serif';-inkscape-font-specification:BitstreamVeraSerif-Roman;writing-mode:lr-tb;fill:#000000;fill-opacity:1;fill-rule:nonzero;stroke:none"
   id="text40959"
   x="285.10007"
   y="-50.20216"><tspan
     x="285.10007 295.32007 303.21606 308.84406 315.53607 323.88007 331.72006"
     y="-50.20216"
     sodipodi:role="line"
     id="tspan40955">Extract</tspan><tspan
     x="276.45944 286.53931 294.8273 302.7373 314.72131 323.14929 329.84131 338.8013"
     y="-32.702156"
     sodipodi:role="line"
     id="tspan40957">Keywords</tspan></text>


<g
   id="g46351"><path
     d="m 229.699,70.266 c 0,-2.3012 -2.332,-4.164 -5.207,-4.164 -2.879,0 -5.211,1.8628 -5.211,4.164 0,2.3 2.332,4.168 5.211,4.168 2.875,0 5.207,-1.868 5.207,-4.168 z"
     style="fill:#ffffff;fill-opacity:1;fill-rule:nonzero;stroke:none;stroke-width:0.1"
     id="path40967"
     inkscape:connector-curvature="0" /><path
     d="m 229.699,70.266 c 0,-2.3012 -2.332,-4.164 -5.207,-4.164 -2.879,0 -5.211,1.8628 -5.211,4.164 0,2.3 2.332,4.168 5.211,4.168 2.875,0 5.207,-1.868 5.207,-4.168 z"
     style="fill:none;stroke:#000000;stroke-width:1.60158002;stroke-linecap:butt;stroke-linejoin:miter;stroke-miterlimit:4;stroke-dasharray:none;stroke-opacity:1"
     id="path40969"
     inkscape:connector-curvature="0" /><path
     d="m 217.781,54.184 c 0,-2.3012 -2.332,-4.168 -5.207,-4.168 -2.875,0 -5.207,1.8668 -5.207,4.168 0,2.3 2.332,4.168 5.207,4.168 2.875,0 5.207,-1.868 5.207,-4.168 z"
     style="fill:#ffffff;fill-opacity:1;fill-rule:nonzero;stroke:none;stroke-width:0.1"
     id="path40971"
     inkscape:connector-curvature="0" /><path
     d="m 217.781,54.184 c 0,-2.3012 -2.332,-4.168 -5.207,-4.168 -2.875,0 -5.207,1.8668 -5.207,4.168 0,2.3 2.332,4.168 5.207,4.168 2.875,0 5.207,-1.868 5.207,-4.168 z"
     style="fill:none;stroke:#000000;stroke-width:1.60158002;stroke-linecap:butt;stroke-linejoin:miter;stroke-miterlimit:4;stroke-dasharray:none;stroke-opacity:1"
     id="path40973"
     inkscape:connector-curvature="0" /><path
     d="M 221.836,66.684 215.23,57.766"
     style="fill:none;stroke:#000000;stroke-width:1.60158002;stroke-linecap:butt;stroke-linejoin:miter;stroke-miterlimit:4;stroke-dasharray:none;stroke-opacity:1"
     id="path40975"
     inkscape:connector-curvature="0" /><path
     d="m 241.617,54.184 c 0,-2.3012 -2.332,-4.168 -5.211,-4.168 -2.875,0 -5.207,1.8668 -5.207,4.168 0,2.3 2.332,4.168 5.207,4.168 2.879,0 5.211,-1.868 5.211,-4.168 z"
     style="fill:#ffffff;fill-opacity:1;fill-rule:nonzero;stroke:none;stroke-width:0.1"
     id="path40977"
     inkscape:connector-curvature="0" /><path
     d="m 241.617,54.184 c 0,-2.3012 -2.332,-4.168 -5.211,-4.168 -2.875,0 -5.207,1.8668 -5.207,4.168 0,2.3 2.332,4.168 5.207,4.168 2.879,0 5.211,-1.868 5.211,-4.168 z"
     style="fill:none;stroke:#000000;stroke-width:1.60158002;stroke-linecap:butt;stroke-linejoin:miter;stroke-miterlimit:4;stroke-dasharray:none;stroke-opacity:1"
     id="path40979"
     inkscape:connector-curvature="0" /><path
     d="m 208.531,38.684 c 0,-2.3012 -2.332,-4.168 -5.207,-4.168 -2.875,0 -5.207,1.8668 -5.207,4.168 0,2.3 2.332,4.168 5.207,4.168 2.875,0 5.207,-1.868 5.207,-4.168 z"
     style="fill:#ffffff;fill-opacity:1;fill-rule:nonzero;stroke:none;stroke-width:0.1"
     id="path40981"
     inkscape:connector-curvature="0" /><path
     d="m 208.531,38.684 c 0,-2.3012 -2.332,-4.168 -5.207,-4.168 -2.875,0 -5.207,1.8668 -5.207,4.168 0,2.3 2.332,4.168 5.207,4.168 2.875,0 5.207,-1.868 5.207,-4.168 z"
     style="fill:none;stroke:#000000;stroke-width:1.60158002;stroke-linecap:butt;stroke-linejoin:miter;stroke-miterlimit:4;stroke-dasharray:none;stroke-opacity:1"
     id="path40983"
     inkscape:connector-curvature="0" /><path
     d="m 227.031,38.684 c 0,-2.3012 -2.332,-4.168 -5.207,-4.168 -2.875,0 -5.207,1.8668 -5.207,4.168 0,2.3 2.332,4.168 5.207,4.168 2.875,0 5.207,-1.868 5.207,-4.168 z"
     style="fill:#ffffff;fill-opacity:1;fill-rule:nonzero;stroke:none;stroke-width:0.1"
     id="path40985"
     inkscape:connector-curvature="0" /><path
     d="m 227.031,38.684 c 0,-2.3012 -2.332,-4.168 -5.207,-4.168 -2.875,0 -5.207,1.8668 -5.207,4.168 0,2.3 2.332,4.168 5.207,4.168 2.875,0 5.207,-1.868 5.207,-4.168 z"
     style="fill:none;stroke:#000000;stroke-width:1.60158002;stroke-linecap:butt;stroke-linejoin:miter;stroke-miterlimit:4;stroke-dasharray:none;stroke-opacity:1"
     id="path40987"
     inkscape:connector-curvature="0" /><path
     d="m 227.145,66.684 6.605,-8.918"
     style="fill:none;stroke:#000000;stroke-width:1.60158002;stroke-linecap:butt;stroke-linejoin:miter;stroke-miterlimit:4;stroke-dasharray:none;stroke-opacity:1"
     id="path40989"
     inkscape:connector-curvature="0" /><path
     d="M 210.332,50.4219 205.566,42.441"
     style="fill:none;stroke:#000000;stroke-width:1.60158002;stroke-linecap:butt;stroke-linejoin:miter;stroke-miterlimit:4;stroke-dasharray:none;stroke-opacity:1"
     id="path40991"
     inkscape:connector-curvature="0" /><path
     d="m 214.816,50.4219 4.762,-7.9809"
     style="fill:none;stroke:#000000;stroke-width:1.60158002;stroke-linecap:butt;stroke-linejoin:miter;stroke-miterlimit:4;stroke-dasharray:none;stroke-opacity:1"
     id="path40993"
     inkscape:connector-curvature="0" /></g><text
   transform="scale(1,-1)"
   style="font-variant:normal;font-weight:normal;font-size:11px;font-family:'Bitstream Vera Serif';-inkscape-font-specification:BitstreamVeraSerif-Roman;writing-mode:lr-tb;fill:#000000;fill-opacity:1;fill-rule:nonzero;stroke:none"
   id="text40999"
   x="207.65643"
   y="-7.9460902"><tspan
     x="207.65643 216.92943 224.33244"
     y="-7.9460902"
     sodipodi:role="line"
     id="tspan40997">UPT</tspan></text>


<text
   transform="scale(1,-1)"
   style="font-variant:normal;font-weight:normal;font-size:14px;font-family:'Bitstream Vera Serif';-inkscape-font-specification:BitstreamVeraSerif-Roman;writing-mode:lr-tb;fill:#000000;fill-opacity:1;fill-rule:nonzero;stroke:none"
   id="text41015"
   x="470.62714"
   y="-39.99609"><tspan
     x="470.62714 480.34314 489.35913 496.73712"
     y="-39.99609"
     sodipodi:role="line"
     id="tspan41013">Fuzz</tspan></text>


<path
   inkscape:connector-curvature="0"
   id="path41031"
   style="fill:#000000;fill-opacity:1;fill-rule:nonzero;stroke:none;stroke-width:0.1"
   d="m 589.344,76.934 c -0.352,-0.075 -0.668,-0.325 -0.84,-0.6758 -0.066,-0.1332 -0.078,-0.2273 -0.082,-0.4691 0,-0.5512 -0.09,-0.4411 1.859,-2.3942 l 1.723,-1.7269 -3.055,-3.059 -3.054,-3.0539 -2.391,2.3859 c -2.727,2.7192 -2.531,2.559 -3.129,2.559 -0.305,0 -0.363,-0.0078 -0.551,-0.102 -0.273,-0.132 -0.504,-0.3628 -0.625,-0.625 -0.086,-0.1789 -0.097,-0.25 -0.097,-0.5621 0,-0.6129 -0.086,-0.5 2.011,-2.6019 l 1.809,-1.8078 -2.645,-2.6172 c -1.453,-1.4379 -5.207,-5.1449 -8.343,-8.2391 -3.137,-3.0898 -6.223,-6.1437 -6.86,-6.7769 l -1.164,-1.1559 0.422,-3.168 c 0.23,-1.739 0.426,-3.1961 0.434,-3.2351 0.015,-0.0578 -0.782,-0.8711 -3.727,-3.816 -2.059,-2.059 -3.742,-3.7461 -3.734,-3.7461 0.004,-0.0039 0.492,0.082 1.093,0.191 l 1.086,0.2031 6.286,6.286 3.011,-0.4649 c 1.657,-0.2582 3.047,-0.4652 3.09,-0.4652 0.074,0 0.809,0.7261 15.168,14.9062 4.035,3.9809 3.996,3.9449 4.035,3.9449 0.02,0 0.824,-0.789 1.789,-1.7531 2.016,-2.0199 1.938,-1.9539 2.512,-1.9539 0.273,0 0.352,0.0121 0.527,0.0942 0.282,0.1328 0.508,0.3519 0.649,0.6367 0.101,0.2152 0.113,0.2621 0.113,0.5781 -0.004,0.5859 0.129,0.4262 -2.57,3.1129 -1.297,1.2891 -2.36,2.3641 -2.36,2.3832 0,0.0238 1.368,1.4059 3.039,3.0738 l 3.039,3.0391 1.719,-1.711 c 1.946,-1.9449 1.879,-1.8859 2.403,-1.8898 0.363,0 0.613,0.1129 0.875,0.3938 0.293,0.3281 0.382,0.766 0.238,1.2031 -0.063,0.1879 -0.297,0.4301 -6.399,6.532 -5.609,5.6168 -6.351,6.3469 -6.543,6.441 -0.242,0.1168 -0.523,0.1559 -0.761,0.1059 z m 4.34,-13.016 c -1.676,-1.6719 -3.055,-3.0391 -3.079,-3.0391 -0.015,0 -0.835,0.8012 -1.816,1.7813 l -1.785,1.7847 3.055,3.0551 3.058,3.0551 3.602,-3.602 z m -5.11,-4.7461 c 0.731,-0.7309 1.332,-1.3481 1.332,-1.3629 0,-0.043 -1.402,-1.4379 -9.82,-9.743 -3.969,-3.9211 -7.555,-7.457 -7.961,-7.8629 l -0.746,-0.734 -2.535,0.386 c -1.399,0.2109 -2.543,0.3949 -2.551,0.4027 -0.027,0.0231 -0.684,5.0121 -0.676,5.1211 0.008,0.0902 0.328,0.4223 1.957,2.0352 l 1.953,1.9257 1.118,-1.1097 c 0.73,-0.7301 1.156,-1.1281 1.242,-1.168 0.398,-0.1641 0.843,0.0828 0.91,0.5039 0.047,0.3051 0.019,0.3399 -1.195,1.5668 l -1.137,1.1371 0.324,0.3281 c 0.176,0.175 0.496,0.484 0.707,0.6829 l 0.387,0.364 1.101,-1.098 c 0.731,-0.727 1.145,-1.1168 1.235,-1.1559 0.394,-0.164 0.84,0.082 0.91,0.507 0.047,0.3051 0.016,0.3442 -1.191,1.5551 l -1.126,1.1289 1.399,1.3981 1.101,-1.1012 c 0.606,-0.6019 1.153,-1.1211 1.215,-1.1519 0.176,-0.086 0.43,-0.079 0.606,0.0308 0.262,0.1524 0.383,0.441 0.305,0.7383 -0.04,0.141 -0.176,0.2848 -1.161,1.2769 l -1.117,1.1219 1.399,1.3981 1.109,-1.109 c 0.609,-0.6141 1.16,-1.1289 1.211,-1.1488 0.512,-0.1911 1.027,0.266 0.887,0.7886 -0.036,0.141 -0.172,0.2891 -1.153,1.2703 l -1.105,1.1129 0.699,0.695 0.699,0.7 1.102,-1.0981 c 0.605,-0.6059 1.148,-1.1207 1.203,-1.141 0.512,-0.191 1.023,0.2703 0.883,0.793 -0.035,0.1371 -0.172,0.289 -1.145,1.266 l -1.105,1.1133 1.414,1.375 1.074,-1.0743 c 0.586,-0.5898 1.117,-1.1019 1.176,-1.1328 0.164,-0.0859 0.519,-0.0511 0.672,0.0668 0.242,0.1832 0.328,0.5539 0.195,0.8199 -0.035,0.0661 -0.547,0.6051 -1.129,1.1911 l -1.062,1.0711 0.933,0.9101 0.93,0.9059 1.598,-1.5821 c 0.875,-0.8711 2.195,-2.1839 2.929,-2.914 z" /><text
   transform="scale(1,-1)"
   style="font-variant:normal;font-weight:normal;font-size:11px;font-family:'Bitstream Vera Serif';-inkscape-font-specification:BitstreamVeraSerif-Roman;writing-mode:lr-tb;fill:#000000;fill-opacity:1;fill-rule:nonzero;stroke:none"
   id="text41043"
   x="555.47968"
   y="-7.9460902"><tspan
     x="555.47968 559.82465 566.90863 570.31866 576.83063 582.99066 587.41266 590.93268 597.55469"
     y="-7.9460902"
     sodipodi:role="line"
     id="tspan41041">Injection</tspan></text>


<g
   id="g46335"><path
     d="M 398.824,64.0082 V 26.5078"
     style="fill:none;stroke:#000000;stroke-width:1.98425007;stroke-linecap:round;stroke-linejoin:miter;stroke-miterlimit:4;stroke-dasharray:none;stroke-opacity:1"
     id="path41045"
     inkscape:connector-curvature="0" /><path
     d="m 394.324,52.7578 -10.5,-7.5 10.5,-7.5"
     style="fill:none;stroke:#000000;stroke-width:1.98425007;stroke-linecap:round;stroke-linejoin:round;stroke-miterlimit:4;stroke-dasharray:none;stroke-opacity:1"
     id="path41047"
     inkscape:connector-curvature="0" /><path
     d="m 403.324,52.7578 10.5,-7.5 -10.5,-7.5"
     style="fill:none;stroke:#000000;stroke-width:1.98425007;stroke-linecap:round;stroke-linejoin:round;stroke-miterlimit:4;stroke-dasharray:none;stroke-opacity:1"
     id="path41049"
     inkscape:connector-curvature="0" /></g><text
   transform="scale(1,-1)"
   style="font-variant:normal;font-weight:normal;font-size:11px;font-family:'Bitstream Vera Serif';-inkscape-font-specification:BitstreamVeraSerif-Roman;writing-mode:lr-tb;fill:#000000;fill-opacity:1;fill-rule:nonzero;stroke:none"
   id="text41057"
   x="371.48782"
   y="-7.9460902"><tspan
     x="371.48782"
     y="-7.9460902"
     sodipodi:role="line"
     id="tspan41055">Keywords</tspan></text>




<path
   transform="scale(0.1)"
   style="fill:none;stroke:#000000;stroke-width:11.33858299;stroke-linecap:butt;stroke-linejoin:miter;stroke-miterlimit:4;stroke-dasharray:none;stroke-opacity:1;marker-end:url(#Arrow1Mend)"
   d="M 525.00001,450.00002 H 832.50002"
   id="path42145"
   inkscape:connector-curvature="0"
   sodipodi:nodetypes="cc" /><path
   style="fill:none;stroke:#000000;stroke-width:1.13385832;stroke-linecap:butt;stroke-linejoin:miter;stroke-miterlimit:4;stroke-dasharray:none;stroke-opacity:1;marker-end:url(#Arrow1Mend-7)"
   d="m 161.25,45.000002 h 35.3831"
   id="path42145-2"
   inkscape:connector-curvature="0"
   sodipodi:nodetypes="cc" /><path
   style="fill:none;stroke:#000000;stroke-width:1.13385832;stroke-linecap:butt;stroke-linejoin:miter;stroke-miterlimit:4;stroke-dasharray:none;stroke-opacity:1;marker-end:url(#Arrow1Mend-5)"
   d="m 241.80929,45.000002 h 28.94072"
   id="path42145-4"
   inkscape:connector-curvature="0"
   sodipodi:nodetypes="cc" /><path
   style="fill:none;stroke:#000000;stroke-width:1.13385832;stroke-linecap:butt;stroke-linejoin:miter;stroke-miterlimit:4;stroke-dasharray:none;stroke-opacity:1;marker-end:url(#Arrow1Mend-5-4)"
   d="m 348.75001,45.000002 h 30"
   id="path42145-4-8"
   inkscape:connector-curvature="0"
   sodipodi:nodetypes="cc" /><path
   style="fill:none;stroke:#000000;stroke-width:1.13385832;stroke-linecap:butt;stroke-linejoin:miter;stroke-miterlimit:4;stroke-dasharray:none;stroke-opacity:1;marker-end:url(#Arrow1Mend-5-4-8)"
   d="m 417.75001,45.000002 h 30"
   id="path42145-4-8-2"
   inkscape:connector-curvature="0"
   sodipodi:nodetypes="cc" /><path
   style="fill:none;stroke:#000000;stroke-width:1.13385832;stroke-linecap:butt;stroke-linejoin:miter;stroke-miterlimit:4;stroke-dasharray:1.13385829, 2.26771659;stroke-dashoffset:0;stroke-opacity:1;marker-end:url(#marker44837)"
   d="M 438.75001,116.25 V 93.750004 h 37.5 V 70.500003"
   id="path44833"
   inkscape:connector-curvature="0"
   sodipodi:nodetypes="cccc" /><path
   style="fill:none;stroke:#000000;stroke-width:1.13385832;stroke-linecap:butt;stroke-linejoin:miter;stroke-miterlimit:4;stroke-dasharray:1.13385829, 2.26771659;stroke-dashoffset:0;stroke-opacity:1;marker-end:url(#marker44837-2)"
   d="M 536.25001,116.25 V 93.750004 l -37.30042,-0.005 -0.19958,-23.245361"
   id="path44833-1"
   inkscape:connector-curvature="0"
   sodipodi:nodetypes="cccc" />
<path
   style="fill:none;stroke:#000000;stroke-width:1.13400006;stroke-linecap:butt;stroke-linejoin:miter;stroke-miterlimit:4;stroke-dasharray:1.13400009, 2.26800018;stroke-dashoffset:0;stroke-opacity:1;marker-end:url(#marker45901)"
   d="M 123.75,116.25 V 70.500003"
   id="path45897"
   inkscape:connector-curvature="0"
   sodipodi:nodetypes="cc" /><path
   style="fill:none;stroke:#000000;stroke-width:1.13385832;stroke-linecap:butt;stroke-linejoin:miter;stroke-miterlimit:4;stroke-dasharray:none;stroke-opacity:1;marker-end:url(#Arrow1Mend-5-4-8-8)"
   d="m 525.00001,45.000002 h 33.75"
   id="path42145-4-8-2-4"
   inkscape:connector-curvature="0"
   sodipodi:nodetypes="cc" /><rect
   ry="3.593766"
   y="-161.25"
   x="86.25"
   height="44.999996"
   width="75.000008"
   id="rect5202-03-9-6-2"
   style="fill:#ffffff;fill-opacity:1;stroke:#000000;stroke-width:1.29035735;stroke-miterlimit:4;stroke-dasharray:none;stroke-dashoffset:0.90141732;stroke-opacity:1"
   transform="scale(1,-1)" /><text
   xml:space="preserve"
   style="font-style:normal;font-variant:normal;font-weight:normal;font-stretch:normal;font-size:11.00000095px;line-height:1.25;font-family:'Bitstream Vera Serif';-inkscape-font-specification:'Bitstream Vera Serif';letter-spacing:0px;word-spacing:0px;fill:#000000;fill-opacity:1;stroke:none;stroke-width:0.75"
   x="97.179199"
   y="-135.88452"
   id="text5200-3-6"
   transform="scale(1,-1)"><tspan
     sodipodi:role="line"
     id="tspan5198-34-1"
     x="97.179199"
     y="-135.88452"
     style="font-style:normal;font-variant:normal;font-weight:normal;font-stretch:normal;font-family:'Bitstream Vera Serif';-inkscape-font-specification:'Bitstream Vera Serif';stroke-width:0.75">Unparser</tspan></text>

<rect
   ry="3.593766"
   y="-161.32019"
   x="498.65518"
   height="44.999996"
   width="75.000008"
   id="rect5202-03-9-6-2-8"
   style="fill:#ffffff;fill-opacity:1;stroke:#000000;stroke-width:1.29035735;stroke-miterlimit:4;stroke-dasharray:none;stroke-dashoffset:0.90141732;stroke-opacity:1"
   transform="scale(1,-1)" /><text
   xml:space="preserve"
   style="font-style:normal;font-variant:normal;font-weight:normal;font-stretch:normal;font-size:11.00000095px;line-height:1.25;font-family:'Bitstream Vera Serif';-inkscape-font-specification:'Bitstream Vera Serif';letter-spacing:0px;word-spacing:0px;fill:#000000;fill-opacity:1;stroke:none;stroke-width:0.75"
   x="517.78333"
   y="-134.88855"
   id="text5200-3-6-7"
   transform="scale(1,-1)"><tspan
     sodipodi:role="line"
     id="tspan5198-34-1-9"
     x="517.78333"
     y="-134.88855"
     style="font-style:normal;font-variant:normal;font-weight:normal;font-stretch:normal;font-family:'Bitstream Vera Serif';-inkscape-font-specification:'Bitstream Vera Serif';stroke-width:0.75">Parser</tspan></text>

<rect
   ry="3.593766"
   y="-161.25"
   x="401.25"
   height="44.999996"
   width="75.000008"
   id="rect5202-03-9-6-2-0"
   style="fill:#ffffff;fill-opacity:1;stroke:#000000;stroke-width:1.29035735;stroke-miterlimit:4;stroke-dasharray:none;stroke-dashoffset:0.90141732;stroke-opacity:1"
   transform="scale(1,-1)" /><text
   xml:space="preserve"
   style="font-style:normal;font-variant:normal;font-weight:normal;font-stretch:normal;font-size:11.00000095px;line-height:1.25;font-family:'Bitstream Vera Serif';-inkscape-font-specification:'Bitstream Vera Serif';letter-spacing:0px;word-spacing:0px;fill:#000000;fill-opacity:1;stroke:none;stroke-width:0.75"
   x="412.1792"
   y="-135.88452"
   id="text5200-3-6-3"
   transform="scale(1,-1)"><tspan
     sodipodi:role="line"
     id="tspan5198-34-1-6"
     x="412.1792"
     y="-135.88452"
     style="font-style:normal;font-variant:normal;font-weight:normal;font-stretch:normal;font-family:'Bitstream Vera Serif';-inkscape-font-specification:'Bitstream Vera Serif';stroke-width:0.75">Unparser</tspan></text>

</g></svg>