<?xml version="1.0" encoding="UTF-8" standalone="no"?>
<svg
   xmlns:dc="http://purl.org/dc/elements/1.1/"
   xmlns:cc="http://creativecommons.org/ns#"
   xmlns:rdf="http://www.w3.org/1999/02/22-rdf-syntax-ns#"
   xmlns:svg="http://www.w3.org/2000/svg"
   xmlns="http://www.w3.org/2000/svg"
   xmlns:sodipodi="http://sodipodi.sourceforge.net/DTD/sodipodi-0.dtd"
   xmlns:inkscape="http://www.inkscape.org/namespaces/inkscape"
   sodipodi:docname="url_tree.svg"
   inkscape:version="1.0 (4035a4fb49, 2020-05-01)"
   id="svg9601"
   version="1.1"
   viewBox="0 0 148.6799 49.679615"
   height="49.679615mm"
   width="148.6799mm">
  <defs
     id="defs9595" />
  <sodipodi:namedview
     inkscape:window-maximized="1"
     inkscape:window-y="18"
     inkscape:window-x="0"
     inkscape:window-height="1402"
     inkscape:window-width="2558"
     fit-margin-bottom="1"
     fit-margin-right="1"
     fit-margin-left="1"
     fit-margin-top="1"
     lock-margins="true"
     showgrid="false"
     inkscape:document-rotation="0"
     inkscape:current-layer="layer1"
     inkscape:document-units="mm"
     inkscape:cy="385.31132"
     inkscape:cx="223.82703"
     inkscape:zoom="0.35"
     inkscape:pageshadow="2"
     inkscape:pageopacity="0.0"
     borderopacity="1.0"
     bordercolor="#666666"
     pagecolor="#ffffff"
     id="base" />
  <metadata
     id="metadata9598">
    <rdf:RDF>
      <cc:Work
         rdf:about="">
        <dc:format>image/svg+xml</dc:format>
        <dc:type
           rdf:resource="http://purl.org/dc/dcmitype/StillImage" />
        <dc:title></dc:title>
      </cc:Work>
    </rdf:RDF>
  </metadata>
  <g
     transform="translate(-46.612431,-46.219713)"
     id="layer1"
     inkscape:groupmode="layer"
     inkscape:label="Layer 1">
    <g
       transform="matrix(0.35277777,0,0,-0.35277777,12.952315,319.21983)"
       id="g9379">
      <path
         id="path6248"
         style="fill:none;stroke:#000000;stroke-width:0.3985;stroke-linecap:butt;stroke-linejoin:miter;stroke-miterlimit:10;stroke-dasharray:none;stroke-opacity:1"
         d="m 319.3382,770.82472 h -29.7844 c -1.65071,0 -2.98883,-1.33813 -2.98883,-2.98882 v -18.59661 c 0,-1.65071 1.33812,-2.98883 2.98883,-2.98883 h 29.7844 c 1.65071,0 2.98883,1.33812 2.98883,2.98883 v 18.59661 c 0,1.65069 -1.33812,2.98882 -2.98883,2.98882 z" />
      <g
         transform="translate(289.388,761.377)"
         id="g6250">
        <g
           id="g6252">
          <g
             transform="translate(-289.388,-761.377)"
             id="g6254">
            <text
               id="text6260"
               style="font-variant:normal;font-weight:normal;font-size:7.9701px;font-family:CMR8;-inkscape-font-specification:CMR8;writing-mode:lr-tb;fill:#000000;fill-opacity:1;fill-rule:nonzero;stroke:none"
               transform="matrix(1,0,0,-1,295.516,761.377)"><tspan
                 id="tspan6256"
                 sodipodi:role="line"
                 y="0"
                 x="0 6.3426056 12.572036">URL</tspan><tspan
                 id="tspan6258"
                 sodipodi:role="line"
                 y="9.4650002"
                 x="-6.1279998 -2.8347547 1.3997594 6.1045094 9.3977547 12.698174 15.05015 19.7549">toString</tspan></text>
            <g
               transform="translate(289.388,761.377)"
               id="g6262" />
          </g>
        </g>
        <g
           transform="translate(15.058)"
           id="g6264" />
      </g>
      <path
         id="path6272"
         style="fill:none;stroke:#000000;stroke-width:0.3985;stroke-linecap:butt;stroke-linejoin:miter;stroke-miterlimit:10;stroke-dasharray:none;stroke-opacity:1"
         d="m 127.26277,729.54172 h -25.82554 c -1.65071,0 -2.98883,-1.33813 -2.98883,-2.98882 v -9.13198 c 0,-1.65071 1.33812,-2.98883 2.98883,-2.98883 h 25.82554 c 1.65071,0 2.98883,1.33812 2.98883,2.98883 v 9.13198 c 0,1.65069 -1.33812,2.98882 -2.98883,2.98882 z" />
      <g
         transform="translate(101.271,720.094)"
         id="g6274">
        <g
           id="g6276">
          <g
             transform="translate(-101.271,-720.094)"
             id="g6278">
            <text
               id="text6282"
               style="font-variant:normal;font-weight:normal;font-size:7.9701px;font-family:CMR8;-inkscape-font-specification:CMR8;writing-mode:lr-tb;fill:#000000;fill-opacity:1;fill-rule:nonzero;stroke:none"
               transform="matrix(1,0,0,-1,101.271,720.094)"><tspan
                 id="tspan6280"
                 sodipodi:role="line"
                 y="0"
                 x="0 3.3402689 6.8646469 11.569397 15.340849 22.397575">scheme</tspan></text>
            <g
               transform="translate(101.271,720.094)"
               id="g6284" />
          </g>
        </g>
        <g
           transform="translate(13.079)"
           id="g6286" />
      </g>
      <g
         transform="translate(106.469,637.527)"
         id="g6296">
        <g
           id="g6298">
          <g
             transform="translate(-106.469,-637.527)"
             id="g6300">
            <text
               id="text6304"
               style="font-variant:normal;font-weight:normal;font-size:7.9701px;font-family:CMR8;-inkscape-font-specification:CMR8;writing-mode:lr-tb;fill:#ff0000;fill-opacity:1;fill-rule:nonzero;stroke:none"
               transform="matrix(1,0,0,-1,106.469,637.527)"><tspan
                 id="tspan6302"
                 sodipodi:role="line"
                 y="0"
                 x="0 4.4736171 7.7668624 11.060108">http</tspan></text>
            <g
               transform="translate(106.469,637.527)"
               id="g6306" />
          </g>
        </g>
        <g
           transform="translate(7.881)"
           id="g6308" />
      </g>
      <g
         transform="translate(137.903,637.527)"
         id="g6318">
        <g
           id="g6320">
          <g
             transform="translate(-137.903,-637.527)"
             id="g6322">
            <text
               id="text6326"
               style="font-variant:normal;font-weight:normal;font-size:7.9701px;font-family:CMR8;-inkscape-font-specification:CMR8;writing-mode:lr-tb;fill:#0000ff;fill-opacity:1;fill-rule:nonzero;stroke:none"
               transform="matrix(1,0,0,-1,137.903,637.527)"><tspan
                 id="tspan6324"
                 y="0"
                 x="0">:</tspan></text>
            <g
               transform="translate(137.903,637.527)"
               id="g6328" />
          </g>
        </g>
        <g
           transform="translate(1.177)"
           id="g6330" />
      </g>
      <g
         transform="translate(155.929,637.527)"
         id="g6340">
        <g
           id="g6342">
          <g
             transform="translate(-155.929,-637.527)"
             id="g6344">
            <text
               id="text6348"
               style="font-variant:normal;font-weight:normal;font-size:7.9701px;font-family:CMR8;-inkscape-font-specification:CMR8;writing-mode:lr-tb;fill:#0000ff;fill-opacity:1;fill-rule:nonzero;stroke:none"
               transform="matrix(1,0,0,-1,155.929,637.527)"><tspan
                 id="tspan6346"
                 y="0"
                 x="0">/</tspan></text>
            <g
               transform="translate(155.929,637.527)"
               id="g6350" />
          </g>
        </g>
        <g
           transform="translate(2.117)"
           id="g6352" />
      </g>
      <g
         transform="translate(175.837,637.527)"
         id="g6362">
        <g
           id="g6364">
          <g
             transform="translate(-175.837,-637.527)"
             id="g6366">
            <text
               id="text6370"
               style="font-variant:normal;font-weight:normal;font-size:7.9701px;font-family:CMR8;-inkscape-font-specification:CMR8;writing-mode:lr-tb;fill:#0000ff;fill-opacity:1;fill-rule:nonzero;stroke:none"
               transform="matrix(1,0,0,-1,175.837,637.527)"><tspan
                 id="tspan6368"
                 y="0"
                 x="0">/</tspan></text>
            <g
               transform="translate(175.837,637.527)"
               id="g6372" />
          </g>
        </g>
        <g
           transform="translate(2.117)"
           id="g6374" />
      </g>
      <path
         id="path6384"
         style="fill:none;stroke:#000000;stroke-width:0.3985;stroke-linecap:butt;stroke-linejoin:miter;stroke-miterlimit:10;stroke-dasharray:none;stroke-opacity:1"
         d="m 242.96435,729.54172 h -29.3527 c -1.65071,0 -2.98883,-1.33813 -2.98883,-2.98882 v -18.59661 c 0,-1.65071 1.33812,-2.98883 2.98883,-2.98883 h 29.3527 c 1.65071,0 2.98883,1.33812 2.98883,2.98883 v 18.59661 c 0,1.65069 -1.33812,2.98882 -2.98883,2.98882 z" />
      <g
         transform="translate(213.445,720.094)"
         id="g6386">
        <g
           id="g6388">
          <g
             transform="translate(-213.445,-720.094)"
             id="g6390">
            <text
               id="text6396"
               style="font-variant:normal;font-weight:normal;font-size:7.9701px;font-family:CMR8;-inkscape-font-specification:CMR8;writing-mode:lr-tb;fill:#000000;fill-opacity:1;fill-rule:nonzero;stroke:none"
               transform="matrix(1,0,0,-1,219.357,720.094)"><tspan
                 id="tspan6392"
                 sodipodi:role="line"
                 y="0"
                 x="0 6.3426056 12.572036">URL</tspan><tspan
                 id="tspan6394"
                 sodipodi:role="line"
                 y="9.4650002"
                 x="-5.9120002 -1.20725 2.133019 5.8965001 9.1969185 12.246279 16.951029 19.538919">userInfo</tspan></text>
            <g
               transform="translate(213.445,720.094)"
               id="g6398" />
          </g>
        </g>
        <g
           transform="translate(14.843)"
           id="g6400" />
      </g>
      <path
         id="path6410"
         style="fill:none;stroke:#000000;stroke-width:0.3985;stroke-linecap:butt;stroke-linejoin:miter;stroke-miterlimit:10;stroke-dasharray:none;stroke-opacity:1"
         d="m 220.56708,688.25772 h -34.53616 c -1.65072,0 -2.98883,-1.33813 -2.98883,-2.98882 v -9.13198 c 0,-1.65071 1.33811,-2.98883 2.98883,-2.98883 h 34.53616 c 1.65072,0 2.98883,1.33812 2.98883,2.98883 v 9.13198 c 0,1.65069 -1.33811,2.98882 -2.98883,2.98882 z" />
      <g
         transform="translate(185.865,678.81)"
         id="g6412">
        <g
           id="g6414">
          <g
             transform="translate(-185.865,-678.81)"
             id="g6416">
            <text
               id="text6420"
               style="font-variant:normal;font-weight:normal;font-size:7.9701px;font-family:CMR8;-inkscape-font-specification:CMR8;writing-mode:lr-tb;fill:#000000;fill-opacity:1;fill-rule:nonzero;stroke:none"
               transform="matrix(1,0,0,-1,185.865,678.81)"><tspan
                 id="tspan6418"
                 sodipodi:role="line"
                 y="0"
                 x="0 4.7047501 8.0450191 11.8085 15.108918 19.813669 24.048183 31.10491">username</tspan></text>
            <g
               transform="translate(185.865,678.81)"
               id="g6422" />
          </g>
        </g>
        <g
           transform="translate(17.434)"
           id="g6424" />
      </g>
      <g
         transform="translate(195.745,637.527)"
         id="g6434">
        <g
           id="g6436">
          <g
             transform="translate(-195.745,-637.527)"
             id="g6438">
            <text
               id="text6442"
               style="font-variant:normal;font-weight:normal;font-size:7.9701px;font-family:CMR8;-inkscape-font-specification:CMR8;writing-mode:lr-tb;fill:#ff0000;fill-opacity:1;fill-rule:nonzero;stroke:none"
               transform="matrix(1,0,0,-1,195.745,637.527)"><tspan
                 id="tspan6440"
                 sodipodi:role="line"
                 y="0"
                 x="0 4.7047501 8.0450191 11.8085">user</tspan></text>
            <g
               transform="translate(195.745,637.527)"
               id="g6444" />
          </g>
        </g>
        <g
           transform="translate(7.554)"
           id="g6446" />
      </g>
      <g
         transform="translate(226.527,637.527)"
         id="g6456">
        <g
           id="g6458">
          <g
             transform="translate(-226.527,-637.527)"
             id="g6460">
            <text
               id="text6464"
               style="font-variant:normal;font-weight:normal;font-size:7.9701px;font-family:CMR8;-inkscape-font-specification:CMR8;writing-mode:lr-tb;fill:#0000ff;fill-opacity:1;fill-rule:nonzero;stroke:none"
               transform="matrix(1,0,0,-1,226.527,637.527)"><tspan
                 id="tspan6462"
                 y="0"
                 x="0">:</tspan></text>
            <g
               transform="translate(226.527,637.527)"
               id="g6466" />
          </g>
        </g>
        <g
           transform="translate(1.176)"
           id="g6468" />
      </g>
      <path
         id="path6478"
         style="fill:none;stroke:#000000;stroke-width:0.3985;stroke-linecap:butt;stroke-linejoin:miter;stroke-miterlimit:10;stroke-dasharray:none;stroke-opacity:1"
         d="m 269.97952,688.25772 h -33.40704 c -1.6507,0 -2.98883,-1.33813 -2.98883,-2.98882 v -9.13198 c 0,-1.65071 1.33813,-2.98883 2.98883,-2.98883 h 33.40704 c 1.6507,0 2.98883,1.33812 2.98883,2.98883 v 9.13198 c 0,1.65069 -1.33813,2.98882 -2.98883,2.98882 z" />
      <g
         transform="translate(236.407,678.81)"
         id="g6480">
        <g
           id="g6482">
          <g
             transform="translate(-236.407,-678.81)"
             id="g6484">
            <text
               id="text6488"
               style="font-variant:normal;font-weight:normal;font-size:7.9701px;font-family:CMR8;-inkscape-font-specification:CMR8;writing-mode:lr-tb;fill:#000000;fill-opacity:1;fill-rule:nonzero;stroke:none"
               transform="matrix(1,0,0,-1,236.407,678.81)"><tspan
                 id="tspan6486"
                 sodipodi:role="line"
                 y="0"
                 x="0 4.7047501 8.9392643 12.279533 15.619802 21.496954 25.731468 29.031887">password</tspan></text>
            <g
               transform="translate(236.407,678.81)"
               id="g6490" />
          </g>
        </g>
        <g
           transform="translate(16.869)"
           id="g6492" />
      </g>
      <g
         transform="translate(245.467,637.527)"
         id="g6502">
        <g
           id="g6504">
          <g
             transform="translate(-245.467,-637.527)"
             id="g6506">
            <text
               id="text6510"
               style="font-variant:normal;font-weight:normal;font-size:7.9701px;font-family:CMR8;-inkscape-font-specification:CMR8;writing-mode:lr-tb;fill:#ff0000;fill-opacity:1;fill-rule:nonzero;stroke:none"
               transform="matrix(1,0,0,-1,245.467,637.527)"><tspan
                 id="tspan6508"
                 sodipodi:role="line"
                 y="0"
                 x="0 4.7047501 8.9392643 12.279533">pass</tspan></text>
            <g
               transform="translate(245.467,637.527)"
               id="g6512" />
          </g>
        </g>
        <g
           transform="translate(7.809)"
           id="g6514" />
      </g>
      <g
         transform="translate(276.76,637.527)"
         id="g6524">
        <g
           id="g6526">
          <g
             transform="translate(-276.76,-637.527)"
             id="g6528">
            <text
               id="text6532"
               style="font-variant:normal;font-weight:normal;font-size:7.9701px;font-family:CMR8;-inkscape-font-specification:CMR8;writing-mode:lr-tb;fill:#0000ff;fill-opacity:1;fill-rule:nonzero;stroke:none"
               transform="matrix(1,0,0,-1,276.76,637.527)"><tspan
                 id="tspan6530"
                 y="0"
                 x="0">@</tspan></text>
            <g
               transform="translate(276.76,637.527)"
               id="g6534" />
          </g>
        </g>
        <g
           transform="translate(3.293)"
           id="g6536" />
      </g>
      <path
         id="path6546"
         style="fill:none;stroke:#000000;stroke-width:0.3985;stroke-linecap:butt;stroke-linejoin:miter;stroke-miterlimit:10;stroke-dasharray:none;stroke-opacity:1"
         d="m 346.39368,729.54172 h -46.99536 c -1.6507,0 -2.98883,-1.33813 -2.98883,-2.98882 v -18.59661 c 0,-1.65071 1.33813,-2.98883 2.98883,-2.98883 h 46.99536 c 1.6507,0 2.98883,1.33812 2.98883,2.98883 v 18.59661 c 0,1.65069 -1.33813,2.98882 -2.98883,2.98882 z" />
      <g
         transform="translate(299.232,720.094)"
         id="g6548">
        <g
           id="g6550">
          <g
             transform="translate(-299.232,-720.094)"
             id="g6552">
            <text
               id="text6558"
               style="font-variant:normal;font-weight:normal;font-size:7.9701px;font-family:CMR8;-inkscape-font-specification:CMR8;writing-mode:lr-tb;fill:#000000;fill-opacity:1;fill-rule:nonzero;stroke:none"
               transform="matrix(1,0,0,-1,314.29,720.094)"><tspan
                 id="tspan6554"
                 sodipodi:role="line"
                 y="0"
                 x="0 6.3426056 10.57712 13.917389">Host</tspan><tspan
                 id="tspan6556"
                 sodipodi:role="line"
                 y="9.4650002"
                 x="-15.058 -11.764754 -7.5302405 -1.1876349 3.0468791 6.3871479 9.6803932 14.385143 17.678389 20.978807 23.330784 28.035534">toHostString</tspan></text>
            <g
               transform="translate(299.232,720.094)"
               id="g6560" />
          </g>
        </g>
        <g
           transform="translate(23.664)"
           id="g6562" />
      </g>
      <path
         id="path6572"
         style="fill:none;stroke:#000000;stroke-width:0.3985;stroke-linecap:butt;stroke-linejoin:miter;stroke-miterlimit:10;stroke-dasharray:none;stroke-opacity:1"
         d="m 337.7882,688.25772 h -29.7844 c -1.65071,0 -2.98883,-1.33813 -2.98883,-2.98882 v -18.59661 c 0,-1.65071 1.33812,-2.98883 2.98883,-2.98883 h 29.7844 c 1.65071,0 2.98883,1.33812 2.98883,2.98883 v 18.59661 c 0,1.65069 -1.33812,2.98882 -2.98883,2.98882 z" />
      <g
         transform="translate(307.837,678.81)"
         id="g6574">
        <g
           id="g6576">
          <g
             transform="translate(-307.837,-678.81)"
             id="g6578">
            <text
               id="text6584"
               style="font-variant:normal;font-weight:normal;font-size:7.9701px;font-family:CMR8;-inkscape-font-specification:CMR8;writing-mode:lr-tb;fill:#000000;fill-opacity:1;fill-rule:nonzero;stroke:none"
               transform="matrix(1,0,0,-1,308.372,678.81)"><tspan
                 id="tspan6580"
                 sodipodi:role="line"
                 y="0"
                 x="0 6.4645481 10.699062 17.755789 21.990303 24.342279">Domain</tspan><tspan
                 id="tspan6582"
                 sodipodi:role="line"
                 y="9.4639997"
                 x="-0.53500003 2.7582452 6.9927592 11.69751 14.990755 18.291174 20.64315 25.3479">toString</tspan></text>
            <g
               transform="translate(307.837,678.81)"
               id="g6586" />
          </g>
        </g>
        <g
           transform="translate(15.059)"
           id="g6588" />
      </g>
      <g
         transform="translate(299.02,637.527)"
         id="g6598">
        <g
           id="g6600">
          <g
             transform="translate(-299.02,-637.527)"
             id="g6602">
            <text
               id="text6606"
               style="font-variant:normal;font-weight:normal;font-size:7.9701px;font-family:CMR8;-inkscape-font-specification:CMR8;writing-mode:lr-tb;fill:#ff0000;fill-opacity:1;fill-rule:nonzero;stroke:none"
               transform="matrix(1,0,0,-1,299.02,637.527)"><tspan
                 id="tspan6604"
                 sodipodi:role="line"
                 y="0"
                 x="0 3.7634811 8.2331133 12.467628 19.524353 24.229103 26.581081 30.344563 32.696537 36.460018 40.694534">example.com</tspan></text>
            <g
               transform="translate(299.02,637.527)"
               id="g6608" />
          </g>
        </g>
        <g
           transform="translate(23.876)"
           id="g6610" />
      </g>
      <path
         id="path6620"
         style="fill:none;stroke:#000000;stroke-width:0.3985;stroke-linecap:butt;stroke-linejoin:miter;stroke-miterlimit:10;stroke-dasharray:none;stroke-opacity:1"
         d="m 381.33315,729.54172 h -16.6043 c -1.65072,0 -2.98884,-1.33813 -2.98884,-2.98882 v -9.13198 c 0,-1.65071 1.33812,-2.98883 2.98884,-2.98883 h 16.6043 c 1.65072,0 2.98884,1.33812 2.98884,2.98883 v 9.13198 c 0,1.65069 -1.33812,2.98882 -2.98884,2.98882 z" />
      <g
         transform="translate(364.562,720.094)"
         id="g6622">
        <g
           id="g6624">
          <g
             transform="translate(-364.562,-720.094)"
             id="g6626">
            <text
               id="text6630"
               style="font-variant:normal;font-weight:normal;font-size:7.9701px;font-family:CMR8;-inkscape-font-specification:CMR8;writing-mode:lr-tb;fill:#000000;fill-opacity:1;fill-rule:nonzero;stroke:none"
               transform="matrix(1,0,0,-1,364.562,720.094)"><tspan
                 id="tspan6628"
                 sodipodi:role="line"
                 y="0"
                 x="0 4.7047501 8.9392643 12.23251">path</tspan></text>
            <g
               transform="translate(364.562,720.094)"
               id="g6632" />
          </g>
        </g>
        <g
           transform="translate(8.469)"
           id="g6634" />
      </g>
      <g
         transform="translate(362.445,637.527)"
         id="g6644">
        <g
           id="g6646">
          <g
             transform="translate(-362.445,-637.527)"
             id="g6648">
            <text
               id="text6652"
               style="font-variant:normal;font-weight:normal;font-size:7.9701px;font-family:CMR8;-inkscape-font-specification:CMR8;writing-mode:lr-tb;fill:#ff0000;fill-opacity:1;fill-rule:nonzero;stroke:none"
               transform="matrix(1,0,0,-1,362.445,637.527)"><tspan
                 id="tspan6650"
                 sodipodi:role="line"
                 y="0"
                 x="0 4.2345142 8.9392643 13.173779 16.467024">/path</tspan></text>
            <g
               transform="translate(362.445,637.527)"
               id="g6654" />
          </g>
        </g>
        <g
           transform="translate(10.586)"
           id="g6656" />
      </g>
      <g
         transform="translate(399.29,637.527)"
         id="g6666">
        <g
           id="g6668">
          <g
             transform="translate(-399.29,-637.527)"
             id="g6670">
            <text
               id="text6674"
               style="font-variant:normal;font-weight:normal;font-size:7.9701px;font-family:CMR8;-inkscape-font-specification:CMR8;writing-mode:lr-tb;fill:#0000ff;fill-opacity:1;fill-rule:nonzero;stroke:none"
               transform="matrix(1,0,0,-1,399.29,637.527)"><tspan
                 id="tspan6672"
                 y="0"
                 x="0">?</tspan></text>
            <g
               transform="translate(399.29,637.527)"
               id="g6676" />
          </g>
        </g>
        <g
           transform="translate(1.999)"
           id="g6678" />
      </g>
      <path
         id="path6688"
         style="fill:none;stroke:#000000;stroke-width:0.3985;stroke-linecap:butt;stroke-linejoin:miter;stroke-miterlimit:10;stroke-dasharray:none;stroke-opacity:1"
         d="m 439.50348,729.54172 h -20.37496 c -1.65072,0 -2.98884,-1.33813 -2.98884,-2.98882 v -9.13198 c 0,-1.65071 1.33812,-2.98883 2.98884,-2.98883 h 20.37496 c 1.65072,0 2.98884,1.33812 2.98884,2.98883 v 9.13198 c 0,1.65069 -1.33812,2.98882 -2.98884,2.98882 z" />
      <g
         transform="translate(418.962,720.094)"
         id="g6690">
        <g
           id="g6692">
          <g
             transform="translate(-418.962,-720.094)"
             id="g6694">
            <text
               id="text6698"
               style="font-variant:normal;font-weight:normal;font-size:7.9701px;font-family:CMR8;-inkscape-font-specification:CMR8;writing-mode:lr-tb;fill:#000000;fill-opacity:1;fill-rule:nonzero;stroke:none"
               transform="matrix(1,0,0,-1,418.962,720.094)"><tspan
                 id="tspan6696"
                 sodipodi:role="line"
                 y="0"
                 x="0 4.4696321 9.1743822 12.937863 16.238281">query</tspan></text>
            <g
               transform="translate(418.962,720.094)"
               id="g6700" />
          </g>
        </g>
        <g
           transform="translate(10.354)"
           id="g6702" />
      </g>
      <g
         transform="translate(418.962,637.527)"
         id="g6712">
        <g
           id="g6714">
          <g
             transform="translate(-418.962,-637.527)"
             id="g6716">
            <text
               id="text6720"
               style="font-variant:normal;font-weight:normal;font-size:7.9701px;font-family:CMR8;-inkscape-font-specification:CMR8;writing-mode:lr-tb;fill:#ff0000;fill-opacity:1;fill-rule:nonzero;stroke:none"
               transform="matrix(1,0,0,-1,418.962,637.527)"><tspan
                 id="tspan6718"
                 sodipodi:role="line"
                 y="0"
                 x="0 4.4696321 9.1743822 12.937863 16.238281">query</tspan></text>
            <g
               transform="translate(418.962,637.527)"
               id="g6722" />
          </g>
        </g>
        <g
           transform="translate(10.354)"
           id="g6724" />
      </g>
      <g
         transform="translate(455.343,637.527)"
         id="g6734">
        <g
           id="g6736">
          <g
             transform="translate(-455.343,-637.527)"
             id="g6738">
            <text
               id="text6742"
               style="font-variant:normal;font-weight:normal;font-size:7.9701px;font-family:CMR8;-inkscape-font-specification:CMR8;writing-mode:lr-tb;fill:#0000ff;fill-opacity:1;fill-rule:nonzero;stroke:none"
               transform="matrix(1,0,0,-1,455.343,637.527)"><tspan
                 id="tspan6740"
                 y="0"
                 x="0">#</tspan></text>
            <g
               transform="translate(455.343,637.527)"
               id="g6744" />
          </g>
        </g>
        <g
           transform="translate(3.528)"
           id="g6746" />
      </g>
      <path
         id="path6756"
         style="fill:none;stroke:#000000;stroke-width:0.3985;stroke-linecap:butt;stroke-linejoin:miter;stroke-miterlimit:10;stroke-dasharray:none;stroke-opacity:1"
         d="m 510.84662,729.54172 h -32.60724 c -1.6507,0 -2.98883,-1.33813 -2.98883,-2.98882 v -9.13198 c 0,-1.65071 1.33813,-2.98883 2.98883,-2.98883 h 32.60724 c 1.6507,0 2.98883,1.33812 2.98883,2.98883 v 9.13198 c 0,1.65069 -1.33813,2.98882 -2.98883,2.98882 z" />
      <g
         transform="translate(478.073,720.094)"
         id="g6758">
        <g
           id="g6760">
          <g
             transform="translate(-478.073,-720.094)"
             id="g6762">
            <text
               id="text6766"
               style="font-variant:normal;font-weight:normal;font-size:7.9701px;font-family:CMR8;-inkscape-font-specification:CMR8;writing-mode:lr-tb;fill:#000000;fill-opacity:1;fill-rule:nonzero;stroke:none"
               transform="matrix(1,0,0,-1,478.073,720.094)"><tspan
                 id="tspan6764"
                 sodipodi:role="line"
                 y="0"
                 x="0 2.5878916 5.88831 10.122824 14.357338 21.414064 25.177546 29.643192">fragment</tspan></text>
            <g
               transform="translate(478.073,720.094)"
               id="g6768" />
          </g>
        </g>
        <g
           transform="translate(16.47)"
           id="g6770" />
      </g>
      <g
         transform="translate(478.073,637.527)"
         id="g6780">
        <g
           id="g6782">
          <g
             transform="translate(-478.073,-637.527)"
             id="g6784">
            <text
               id="text6788"
               style="font-variant:normal;font-weight:normal;font-size:7.9701px;font-family:CMR8;-inkscape-font-specification:CMR8;writing-mode:lr-tb;fill:#ff0000;fill-opacity:1;fill-rule:nonzero;stroke:none"
               transform="matrix(1,0,0,-1,478.073,637.527)"><tspan
                 id="tspan6786"
                 sodipodi:role="line"
                 y="0"
                 x="0 2.5878916 5.88831 10.122824 14.357338 21.414064 25.177546 29.643192">fragment</tspan></text>
            <g
               transform="translate(478.073,637.527)"
               id="g6790" />
          </g>
        </g>
        <g
           transform="translate(16.47)"
           id="g6792" />
      </g>
      <path
         d="m 304.446,746.05121 v -7.43915 H 114.34685 v -8.87181"
         style="fill:none;stroke:#000000;stroke-width:0.3985;stroke-linecap:butt;stroke-linejoin:miter;stroke-miterlimit:10;stroke-dasharray:none;stroke-opacity:1"
         id="path6796" />
      <path
         d="m 114.34685,714.2321 v -12.17146 0 -54.88788"
         style="fill:none;stroke:#000000;stroke-width:0.3985;stroke-linecap:butt;stroke-linejoin:miter;stroke-miterlimit:10;stroke-dasharray:none;stroke-opacity:1"
         id="path6798" />
      <path
         d="m 304.446,746.05121 v -7.43915 H 139.0771 v -91.4393"
         style="fill:none;stroke:#000000;stroke-width:0.3985;stroke-linecap:butt;stroke-linejoin:miter;stroke-miterlimit:10;stroke-dasharray:none;stroke-opacity:1"
         id="path6800" />
      <path
         d="m 304.446,746.05121 v -7.43915 H 158.0441 v -91.4393"
         style="fill:none;stroke:#000000;stroke-width:0.3985;stroke-linecap:butt;stroke-linejoin:miter;stroke-miterlimit:10;stroke-dasharray:none;stroke-opacity:1"
         id="path6802" />
      <path
         d="m 304.446,746.05121 v -7.43915 H 177.95203 v -91.4393"
         style="fill:none;stroke:#000000;stroke-width:0.3985;stroke-linecap:butt;stroke-linejoin:miter;stroke-miterlimit:10;stroke-dasharray:none;stroke-opacity:1"
         id="path6804" />
      <path
         d="m 304.446,746.05121 v -7.43915 h -76.15967 v -8.87181"
         style="fill:none;stroke:#000000;stroke-width:0.3985;stroke-linecap:butt;stroke-linejoin:miter;stroke-miterlimit:10;stroke-dasharray:none;stroke-opacity:1"
         id="path6806" />
      <path
         d="m 228.28633,704.76747 v -7.43915 h -24.98897 v -8.87181"
         style="fill:none;stroke:#000000;stroke-width:0.3985;stroke-linecap:butt;stroke-linejoin:miter;stroke-miterlimit:10;stroke-dasharray:none;stroke-opacity:1"
         id="path6808" />
      <path
         d="m 203.29736,672.94837 v -12.17147 0 -13.60414"
         style="fill:none;stroke:#000000;stroke-width:0.3985;stroke-linecap:butt;stroke-linejoin:miter;stroke-miterlimit:10;stroke-dasharray:none;stroke-opacity:1"
         id="path6810" />
      <path
         d="m 228.28633,704.76747 v -7.43915 h -0.58458 v -50.15556"
         style="fill:none;stroke:#000000;stroke-width:0.3985;stroke-linecap:butt;stroke-linejoin:miter;stroke-miterlimit:10;stroke-dasharray:none;stroke-opacity:1"
         id="path6812" />
      <path
         d="m 228.28633,704.76747 v -7.43915 h 24.98897 v -8.87181"
         style="fill:none;stroke:#000000;stroke-width:0.3985;stroke-linecap:butt;stroke-linejoin:miter;stroke-miterlimit:10;stroke-dasharray:none;stroke-opacity:1"
         id="path6814" />
      <path
         d="m 253.2753,672.94837 v -12.17147 0 -13.60414"
         style="fill:none;stroke:#000000;stroke-width:0.3985;stroke-linecap:butt;stroke-linejoin:miter;stroke-miterlimit:10;stroke-dasharray:none;stroke-opacity:1"
         id="path6816" />
      <path
         d="m 304.446,746.05121 v -7.43915 h -24.39389 v -91.4393"
         style="fill:none;stroke:#000000;stroke-width:0.3985;stroke-linecap:butt;stroke-linejoin:miter;stroke-miterlimit:10;stroke-dasharray:none;stroke-opacity:1"
         id="path6818" />
      <path
         d="m 304.446,746.05121 v -7.43915 h 18.44948 v -8.87181"
         style="fill:none;stroke:#000000;stroke-width:0.3985;stroke-linecap:butt;stroke-linejoin:miter;stroke-miterlimit:10;stroke-dasharray:none;stroke-opacity:1"
         id="path6820" />
      <path
         d="m 322.89548,704.76747 v -7.43915 0 -8.87181"
         style="fill:none;stroke:#000000;stroke-width:0.3985;stroke-linecap:butt;stroke-linejoin:miter;stroke-miterlimit:10;stroke-dasharray:none;stroke-opacity:1"
         id="path6822" />
      <path
         d="m 322.89548,663.48374 v -7.43915 0 -8.87183"
         style="fill:none;stroke:#000000;stroke-width:0.3985;stroke-linecap:butt;stroke-linejoin:miter;stroke-miterlimit:10;stroke-dasharray:none;stroke-opacity:1"
         id="path6824" />
      <path
         d="m 304.446,746.05121 v -7.43915 h 68.58516 v -8.87181"
         style="fill:none;stroke:#000000;stroke-width:0.3985;stroke-linecap:butt;stroke-linejoin:miter;stroke-miterlimit:10;stroke-dasharray:none;stroke-opacity:1"
         id="path6826" />
      <path
         d="m 373.03116,714.2321 v -12.17146 0 -54.88788"
         style="fill:none;stroke:#000000;stroke-width:0.3985;stroke-linecap:butt;stroke-linejoin:miter;stroke-miterlimit:10;stroke-dasharray:none;stroke-opacity:1"
         id="path6828" />
      <path
         d="m 304.446,746.05121 v -7.43915 h 96.84395 v -91.4393"
         style="fill:none;stroke:#000000;stroke-width:0.3985;stroke-linecap:butt;stroke-linejoin:miter;stroke-miterlimit:10;stroke-dasharray:none;stroke-opacity:1"
         id="path6830" />
      <path
         d="m 304.446,746.05121 v -7.43915 h 124.87096 v -8.87181"
         style="fill:none;stroke:#000000;stroke-width:0.3985;stroke-linecap:butt;stroke-linejoin:miter;stroke-miterlimit:10;stroke-dasharray:none;stroke-opacity:1"
         id="path6832" />
      <path
         d="m 429.31696,714.2321 v -12.17146 0 -54.88788"
         style="fill:none;stroke:#000000;stroke-width:0.3985;stroke-linecap:butt;stroke-linejoin:miter;stroke-miterlimit:10;stroke-dasharray:none;stroke-opacity:1"
         id="path6834" />
      <path
         d="m 304.446,746.05121 v -7.43915 h 154.42699 v -91.4393"
         style="fill:none;stroke:#000000;stroke-width:0.3985;stroke-linecap:butt;stroke-linejoin:miter;stroke-miterlimit:10;stroke-dasharray:none;stroke-opacity:1"
         id="path6836" />
      <path
         d="m 304.446,746.05121 v -7.43915 h 190.09915 v -8.87181"
         style="fill:none;stroke:#000000;stroke-width:0.3985;stroke-linecap:butt;stroke-linejoin:miter;stroke-miterlimit:10;stroke-dasharray:none;stroke-opacity:1"
         id="path6838" />
      <path
         d="m 494.54515,714.2321 v -12.17146 0 -54.88788"
         style="fill:none;stroke:#000000;stroke-width:0.3985;stroke-linecap:butt;stroke-linejoin:miter;stroke-miterlimit:10;stroke-dasharray:none;stroke-opacity:1"
         id="path6840" />
    </g>
  </g>
</svg>
